<?xml version="1.0" encoding="utf-8"?>
<!-- Generator: Adobe Illustrator 21.1.0, SVG Export Plug-In . SVG Version: 6.00 Build 0)  -->
<svg version="1.1" xmlns="http://www.w3.org/2000/svg" xmlns:xlink="http://www.w3.org/1999/xlink" x="0px" y="0px"
	 viewBox="0 0 116.4 122.9" enable-background="new 0 0 116.4 122.9" xml:space="preserve">
<g id="Layer_3" opacity="0.8">
	<path fill-rule="evenodd" clip-rule="evenodd" fill="none" stroke="#000000" stroke-width="3.5" stroke-miterlimit="10" d="M0,0
		h116.4v122.9H0V0z"/>
</g>
<g id="Layer_2" opacity="0.8">
	<path d="M13.4,97.4c0.1,0.3,0.3,0.5,0.4,0.7c0.2,0.2,0.4,0.3,0.7,0.4c0.3,0.1,0.5,0.2,0.8,0.2c0.3,0,0.6-0.1,0.8-0.2
		c0.3-0.1,0.5-0.3,0.7-0.4c0.2-0.2,0.3-0.4,0.4-0.7c0.1-0.3,0.2-0.5,0.2-0.8c0-0.3-0.1-0.6-0.2-0.8c-0.1-0.3-0.3-0.5-0.4-0.7
		c-0.2-0.2-0.4-0.3-0.7-0.4c-0.3-0.1-0.5-0.2-0.8-0.2c-0.3,0-0.6,0.1-0.8,0.2c-0.3,0.1-0.5,0.3-0.7,0.4c-0.2,0.2-0.3,0.4-0.4,0.7
		c-0.1,0.3-0.2,0.5-0.2,0.8C13.2,96.8,13.3,97.1,13.4,97.4z"/>
	<path d="M23.9,98.6h3.3c0.5,0,0.8-0.2,0.9-0.7l2.1-7.2c0.1-0.3,0.2-0.6,0.3-1c0.1-0.3,0.2-0.6,0.2-1c0.1,0.3,0.1,0.6,0.2,0.9
		c0.1,0.3,0.2,0.6,0.3,1l2.1,7.2c0.1,0.3,0.2,0.4,0.3,0.6c0.1,0.1,0.3,0.2,0.5,0.2h3.5L42,84.2h-3.3c-0.3,0-0.5,0.1-0.7,0.2
		c-0.2,0.1-0.3,0.3-0.4,0.5L36,91.4c-0.1,0.5-0.2,1-0.3,1.5c-0.1,0.5-0.2,0.9-0.3,1.4c-0.1-0.5-0.2-0.9-0.4-1.4
		c-0.1-0.5-0.3-0.9-0.4-1.4L32.9,85c-0.1-0.2-0.2-0.4-0.4-0.5c-0.2-0.1-0.5-0.2-0.8-0.2h-1.9c-0.3,0-0.5,0.1-0.7,0.2
		c-0.2,0.1-0.3,0.3-0.4,0.5l-1.8,6.5c-0.1,0.5-0.3,1-0.4,1.4c-0.1,0.5-0.3,0.9-0.4,1.4c-0.1-0.5-0.2-0.9-0.3-1.4
		c-0.1-0.5-0.2-0.9-0.3-1.4L24,85c0-0.2-0.2-0.4-0.4-0.5c-0.2-0.1-0.5-0.2-0.8-0.2h-3.4L23.9,98.6z"/>
	<path d="M47,84.5c-0.9,0.3-1.7,0.8-2.3,1.5c-0.7,0.6-1.2,1.4-1.5,2.3c-0.4,0.9-0.5,1.9-0.5,3.1c0,1.1,0.2,2.2,0.5,3.1
		c0.4,0.9,0.9,1.7,1.5,2.3c0.7,0.6,1.4,1.1,2.3,1.5c0.9,0.3,1.9,0.5,3,0.5c1.1,0,2.1-0.2,3-0.5c0.9-0.3,1.7-0.8,2.3-1.5
		c0.6-0.6,1.1-1.4,1.5-2.3c0.4-0.9,0.5-2,0.5-3.1c0-1.1-0.2-2.2-0.5-3.1c-0.4-0.9-0.9-1.7-1.5-2.3c-0.6-0.6-1.4-1.1-2.3-1.5
		c-0.9-0.3-1.9-0.5-3-0.5C49,84,47.9,84.2,47,84.5z M47.8,94.6c-0.5-0.7-0.7-1.8-0.7-3.2c0-1.4,0.2-2.5,0.7-3.2c0.5-0.7,1.2-1,2.2-1
		c1,0,1.7,0.3,2.2,1c0.5,0.7,0.7,1.8,0.7,3.2c0,1.4-0.2,2.5-0.7,3.2c-0.5,0.7-1.2,1-2.2,1C49,95.7,48.3,95.3,47.8,94.6z"/>
	<path d="M64.1,98.6v-8.8c0.6-1.2,1.5-1.8,2.7-1.8c0.3,0,0.6,0,0.8,0.1c0.2,0,0.4,0.1,0.6,0.1c0.2,0,0.3,0,0.4-0.1
		c0.1-0.1,0.2-0.2,0.2-0.4l0.6-3.2c-0.4-0.3-0.9-0.5-1.6-0.5c-0.8,0-1.5,0.2-2.2,0.7c-0.7,0.5-1.2,1.1-1.8,1.9l-0.2-1.3
		c0-0.2-0.1-0.3-0.1-0.5c-0.1-0.1-0.1-0.2-0.2-0.3c-0.1-0.1-0.2-0.1-0.4-0.2c-0.1,0-0.3-0.1-0.5-0.1h-2.6v14.4H64.1z"/>
	<path d="M71.2,77.8v20.8h4.3v-6.4h0.8c0.3,0,0.5,0,0.6,0.1c0.1,0.1,0.3,0.2,0.4,0.5l2.7,5.1c0.1,0.3,0.3,0.5,0.6,0.6
		c0.2,0.1,0.5,0.2,0.8,0.2h3.9l-4.1-6.9c-0.3-0.5-0.7-0.9-1.1-1.3c0.2-0.1,0.5-0.3,0.7-0.5c0.2-0.2,0.4-0.4,0.6-0.6l3.7-5.1h-3.9
		c-0.3,0-0.6,0.1-0.8,0.2c-0.2,0.1-0.4,0.3-0.6,0.5L77.2,89c-0.1,0.2-0.3,0.3-0.4,0.4c-0.1,0.1-0.3,0.1-0.6,0.1h-0.6V77.8H71.2z"/>
	<path d="M97,85.9c-0.3-0.3-0.6-0.5-0.9-0.7c-0.4-0.2-0.7-0.4-1.2-0.6c-0.4-0.2-0.9-0.3-1.4-0.4C93,84,92.5,84,92,84
		c-1,0-1.8,0.1-2.5,0.4c-0.7,0.2-1.3,0.6-1.8,1c-0.5,0.4-0.8,0.9-1.1,1.5c-0.2,0.6-0.4,1.1-0.4,1.7c0,0.7,0.1,1.2,0.3,1.7
		c0.2,0.5,0.4,0.9,0.8,1.2c0.3,0.3,0.7,0.6,1.1,0.8c0.4,0.2,0.8,0.4,1.2,0.5c0.4,0.1,0.8,0.3,1.2,0.4c0.4,0.1,0.8,0.2,1.1,0.4
		c0.3,0.1,0.6,0.3,0.8,0.5c0.2,0.2,0.3,0.4,0.3,0.7c0,0.2,0,0.3-0.1,0.5c-0.1,0.1-0.2,0.3-0.3,0.4c-0.1,0.1-0.3,0.2-0.6,0.3
		c-0.2,0.1-0.5,0.1-0.8,0.1c-0.5,0-0.9-0.1-1.2-0.2c-0.3-0.1-0.6-0.2-0.8-0.4c-0.2-0.1-0.4-0.3-0.6-0.4c-0.2-0.1-0.4-0.2-0.7-0.2
		c-0.3,0-0.5,0.1-0.7,0.2c-0.2,0.1-0.3,0.3-0.4,0.4l-1,1.6c0.3,0.3,0.6,0.5,1,0.7c0.4,0.2,0.8,0.4,1.3,0.6c0.5,0.2,0.9,0.3,1.4,0.4
		c0.5,0.1,1,0.1,1.5,0.1c1,0,1.8-0.1,2.6-0.4c0.8-0.2,1.4-0.6,1.9-1c0.5-0.4,0.9-1,1.2-1.6c0.3-0.6,0.4-1.3,0.4-2
		c0-0.6-0.1-1.1-0.3-1.5c-0.2-0.4-0.4-0.8-0.8-1.1c-0.3-0.3-0.7-0.5-1.1-0.7c-0.4-0.2-0.8-0.4-1.2-0.5c-0.4-0.1-0.8-0.3-1.2-0.4
		c-0.4-0.1-0.8-0.2-1.1-0.4c-0.3-0.1-0.6-0.3-0.8-0.5c-0.2-0.2-0.3-0.4-0.3-0.7c0-0.4,0.1-0.7,0.4-0.9c0.3-0.2,0.7-0.3,1.3-0.3
		c0.4,0,0.7,0,1,0.1c0.3,0.1,0.6,0.2,0.8,0.3c0.2,0.1,0.5,0.2,0.7,0.3c0.2,0.1,0.4,0.1,0.6,0.1c0.2,0,0.4,0,0.5-0.1
		c0.1-0.1,0.2-0.2,0.4-0.4L97,85.9z"/>
</g>
<g id="Layer_1">
	<path d="M14.4,27.4V30H29v38.9h3V30h14.5v-2.5H14.4z"/>
	<path d="M70.9,31.1c-1.4-1.4-3-2.5-4.7-3.1c-1.7-0.7-3.6-1-5.8-1c-1.9,0-3.6,0.3-5.1,0.9c-1.5,0.6-2.8,1.4-3.8,2.4
		c-1,1-1.8,2.1-2.3,3.4c-0.5,1.3-0.8,2.6-0.8,4c0,1.8,0.3,3.3,0.9,4.4c0.6,1.2,1.4,2.2,2.4,3c1,0.8,2.1,1.4,3.3,1.9
		c1.2,0.5,2.5,1,3.8,1.4c1.3,0.4,2.6,0.8,3.8,1.3c1.2,0.4,2.3,1,3.3,1.6c1,0.6,1.8,1.4,2.4,2.4c0.6,0.9,0.9,2.2,0.9,3.6
		c0,1.3-0.2,2.6-0.7,3.8c-0.5,1.2-1.1,2.2-2,3.1c-0.9,0.9-2,1.5-3.3,2c-1.3,0.5-2.8,0.7-4.4,0.7c-1.2,0-2.3-0.1-3.2-0.4
		c-0.9-0.2-1.8-0.5-2.5-0.9c-0.7-0.3-1.4-0.7-1.9-1.1c-0.5-0.4-1-0.8-1.4-1.1c-0.4-0.3-0.7-0.6-1-0.9c-0.3-0.2-0.5-0.4-0.7-0.4
		c-0.3,0-0.6,0.1-0.8,0.4l-0.8,1.3c1.5,1.7,3.2,3,5.2,4c2,1,4.3,1.5,7.1,1.5c2.1,0,4-0.3,5.6-1c1.6-0.7,3-1.5,4.2-2.7
		c1.1-1.1,2-2.5,2.6-4c0.6-1.5,0.9-3.2,0.9-4.9c0-1.7-0.3-3.1-0.9-4.3c-0.6-1.1-1.4-2.1-2.4-2.9c-1-0.8-2.1-1.4-3.3-1.9
		c-1.2-0.5-2.5-1-3.8-1.4c-1.3-0.4-2.6-0.9-3.8-1.3s-2.3-1-3.3-1.6c-1-0.6-1.8-1.4-2.4-2.3c-0.6-0.9-0.9-2.1-0.9-3.5
		c0-1.1,0.2-2.1,0.6-3.1c0.4-1,1-1.8,1.8-2.6c0.8-0.7,1.7-1.3,2.9-1.8c1.1-0.4,2.5-0.6,4-0.6c1.5,0,2.8,0.2,3.8,0.6
		c1,0.4,1.9,0.8,2.6,1.2c0.7,0.4,1.2,0.8,1.6,1.2c0.4,0.4,0.7,0.5,1,0.5c0.3,0,0.6-0.2,0.8-0.5L70.9,31.1z"/>
	<path d="M77.3,27.4v41.5h3v-19h18.9v-2.5H80.3V29.9h21.8v-2.5H77.3z"/>
</g>
</svg>
